<?xml version="1.0" encoding="utf-8"?>
<!-- Generator: Adobe Illustrator 24.1.2, SVG Export Plug-In . SVG Version: 6.00 Build 0)  -->
<svg version="1.1" id="Layer_1" xmlns="http://www.w3.org/2000/svg" xmlns:xlink="http://www.w3.org/1999/xlink" x="0px" y="0px"
	 viewBox="0 0 291.8 150.1" style="enable-background:new 0 0 291.8 150.1;" xml:space="preserve">
<style type="text/css">
	.st0{fill:#E67A2A;}
	.st1{fill:#571E3E;}
	.st2{fill:#CCD970;}
	.st3{fill:#161127;}
	.st4{fill:#5D1D3F;}
</style>
<g id="vetor">
	<g id="elipse_cont.">
		<path id="ext" class="st0" d="M0.1,76.4c-0.2-2.8-0.1-5.7,0.6-8.5c6-26.3,33-42.8,54.8-52C81.9,5.4,114.6,0,142,0
			c40.8-0.7,88.5,9.1,113.6,26.4c17.8,10.9,36.1,30.2,36.1,46.8c0.2,25.4-19.3,45-53.2,60.3c-4,1.8-46.8,18.3-92.6,16.4
			c-44.7-1.5-78.7-8.9-105-22.3C14.3,112.7,1.7,95.6,0.1,76.4z"/>
		<path id="int_1_" class="st1" d="M291.8,72.3c0.1,1.4,0,2.7-0.1,4.1c-0.1,0.9-0.1,1.7-0.2,2.5c-0.2,1.9-0.5,3.8-1,5.6
			c-1.3,5.1-3.4,10-6.4,14.6c-0.6,0.9-1.2,1.8-1.8,2.7c-0.6,0.9-1.2,1.7-1.9,2.5c-1.1,1.3-2.2,2.6-3.4,3.9c-1.3,1.4-2.8,2.8-4.3,4.2
			c-2.4,2.1-5,4.2-7.8,6.3c-6.1,4.4-12.8,8.3-19.6,11.6c-2.1,1-4.5,2.3-6.5,3.1c-2.5,1-4.9,2-7.9,3c-1.6,0.5-3.1,1.1-4.7,1.6
			c-1.8,0.6-3.7,1.2-5.6,1.7c-3.2,1-6.5,1.8-9.8,2.7c-21.1,5.4-45,8.5-65.6,7.5c-20.6-0.6-42.2-2.9-61.4-7.3c-13-3-25.1-6.9-36-11.7
			c-13.1-5.7-29.5-17.2-37.9-28.9c-4-5.6-6.9-11.5-8.5-18c-0.7-2.8-1.1-5.9-1.3-8.9C0,74.2,0,73.4,0,72.6c0.1-1.9,0.7-4.6,1.3-6.9
			c0.6-2.3,1.4-4.5,2.4-6.8c1.8-4.1,4.2-8.2,7.3-12c4.2-5.4,9.7-10.6,15.8-15.1c9.1-6.8,20-12.8,32.8-17.5
			c8.3-3.1,17.4-5.7,27.1-7.9c13.4-3,27.7-5.1,42.1-6C73.1,6.3,17,27.6,5.8,69.2c-0.5,1.9-0.8,4-0.7,6c1.6,43.4,68.3,72.9,140,71.8
			c73.4,0,141.9-34.2,143.4-74.8c0-5.9-1.1-11.9-3.4-17.9c0.2,0.3,0.3,0.5,0.5,0.8c0.4,0.6,0.8,1.2,1.1,1.9c0.4,0.8,0.8,1.5,1.2,2.3
			c1.2,2.4,2.1,4.7,2.7,7c0.3,1.1,0.5,2.1,0.7,3.1C291.6,70.3,291.8,71.4,291.8,72.3z"/>
	</g>
	<g id="planta">
		<path id="galho" class="st2" d="M116.5,88.6c0-1.6,0.2-1.9-0.3-3.6c-0.3-1.2-2.3-3.1-2.3-3.2c-3.9-4.6-11.9-12-17.7-16.3
			c-0.5-0.8-0.5-2.3,0-3.5c7.1,5,18.7,17.1,18.3,17.2c0.4-0.4,2-0.2,1.7-1c-2.4-6.2-9.3-14.4-17.8-21.6c0.1-1.2,0.5-3.5,1.3-2.7
			c6.6,6.5,13.3,14.2,19,22c-3.2-8.6-9.5-17.1-17.2-24.4c0.2-1.2,0.7-2,1.7-2.3c9.2,8.2,16.8,21.4,20.7,33.9
			c2-9.9-3.9-24.2-13.2-38.8c-2.4-3.8-7.8-10.1-13.2-16.3c0.3-0.8,0.3-1.5,0.1-2.5c3.5,3,6.6,5.9,8.6,8.6
			c4.4,5.5,8.2,10.7,11.3,15.6l7,13.1c1.8,3.5,3.1,6.5,4.2,9.8c0.8,2.3,1.1,5.3,1.1,8.8l-0.7,9.9c-1,0.2-1.5,0-2,0
			c0.3-4.7,0.7-9.9,0.4-13.3c0-2-0.4-3.8-1-5.4c0.2,6.8,0.7,13.9-0.5,18.5C123,91,119.6,90,116.5,88.6z"/>
		<g id="sementes">
			<circle id="semente_3_" class="st3" cx="95.6" cy="26.6" r="2.4"/>
			<circle id="semente_2_" class="st3" cx="116.8" cy="64.3" r="2.3"/>
			<circle id="semente_1_" class="st3" cx="128.8" cy="70.5" r="2.1"/>
			<circle id="semente" class="st3" cx="116.5" cy="80.9" r="3"/>
		</g>
	</g>
	<g id="acai">
		<g id="A">
			<path class="st4" d="M46.6,102.5l11.5,0.1l0,0V90.3c0-0.4,0.4-0.8,0.8-0.8h19.2c0.4,0,0.8,0.4,0.8,0.8v12.4l0,0h11.9l0,0V89.5
				V77.9V47.6v-5.2c0-6.6-4.4-6.9-11.9-6.8c-15,1.6-25.7,9.9-31.7,25.9c-0.4,1-0.6,2.1-0.6,3.3v12.6v12.1V102.5L46.6,102.5z"/>
			<path class="st0" d="M58.7,77.9H78c0.5,0,0.9-0.4,0.9-0.9V49.4c0-1.3-0.8-2.1-2.6-1.9c-6.2,2-11.5,6.4-16,12.8
				c-1.4,2-2.1,4.5-2.1,6.9v10.1C58.1,77.6,58.4,77.9,58.7,77.9z"/>
		</g>
		<g id="A_2_">
			<path class="st4" d="M160.7,102.3l11.5,0.1l0,0V90c0-0.4,0.3-0.7,0.7-0.7h19.4c0.4,0,0.7,0.3,0.7,0.7v12.4l0,0h11.9l0,0V89.2
				V77.7V47.3v-5.2c0-6.6-4.4-6.9-11.9-6.8c-15,1.6-25.8,9.9-31.7,26c-0.4,1-0.5,2-0.5,3.1v12.7v12L160.7,102.3L160.7,102.3z"/>
			<path class="st0" d="M172.7,77.7H192c0.5,0,0.9-0.4,0.9-0.9V49.2c0-1.3-0.8-2.1-2.6-1.9c-6.2,2-11.5,6.4-16,12.8
				c-1.4,2-2.1,4.5-2.1,6.9v10.1C172.2,77.4,172.5,77.7,172.7,77.7z"/>
		</g>
		<path id="C" class="st4" d="M161.4,97.4c0,0.2-0.1,0.4-0.2,0.5c-3.1,2.3-11.7,4.5-24.1,4.7c-9.9,0.1-22.9-1.6-34.1-9.1
			c-12.5-8.3-17.6-21.6-15.9-34.1c0.4-3.1,1.1-9,5.2-14.3c5.2-6.9,11.8-9.7,18.2-12.6c12.2-5.6,23.3-4.9,29-4.9
			c6.3,0.1,16.7,1.2,27.7,4.8c0.4,0.1,0.5,0.6,0.3,0.9l-3.6,4.5c-0.2,0.2-0.4,0.3-0.6,0.2c-3.5-0.8-8.5-1.7-12.8-2.1
			c-2.3-0.2-6.4-0.6-11.8-0.5c-6.6,0.2-11.9,0.3-18.4,2.4c-3.8,1.2-10.4,3.5-16,9.7c-2.1,2.5-6.6,7.5-7,14.8
			c-0.4,8.1,4.3,14.1,6.3,16.5c10.8,13.5,29.6,14.3,34.1,13.7c4.5-0.5,12.7-1.5,22.9-5c0.4-0.2,0.8,0.2,0.8,0.5L161.4,97.4z"/>
		<path id="รง" class="st4" d="M112.7,104.7l-1.6,3c-0.1,0.1,0,0.3,0.2,0.3l14.9,2.4c0.1,0,0.2-0.1,0.2-0.1l2.4-5.4
			c0.1-0.1-0.1-0.3-0.2-0.3h-15.7C112.8,104.6,112.7,104.7,112.7,104.7z"/>
		<path id="I" class="st4" d="M210.8,47.2V97c0,0.9,0.2,1.7,0.5,2.5c0.6,1.3,1.6,2.3,2.8,2.8c0.3,0.2,0.7,0.2,1,0.2h7.5
			c0.2,0,0.3-0.2,0.3-0.3V40.7c0-0.2-0.2-0.3-0.4-0.3c-4.8,0.5-8.9,1.9-11.4,5.3C211,46.1,210.8,46.7,210.8,47.2z"/>
		<path id="acento" class="st4" d="M210.8,22.4v17.3c0,0.3,0.3,0.5,0.6,0.4c10.8-3.5,20-7.9,26.5-13.1c1.1-0.9,1.9-2,2.4-3.3
			c1-3.3,1.1-8.2,1-13.1c0-0.2-0.2-0.3-0.4-0.3c-10,4.4-19.9,8.2-29.6,11.3C211,21.9,210.8,22.2,210.8,22.4z"/>
	</g>
	<g id="txt_preto">
		<path d="M173.3,122.3l-1.6,2.1c-0.8-0.4-1.6-1-2.3-1.7c-0.6,0.5-1.2,0.9-1.8,1.2c-0.6,0.3-1.4,0.4-2.3,0.4c-1.8,0-3.1-0.5-4-1.5
			c-0.7-0.8-1-1.7-1-2.7c0-0.9,0.3-1.8,0.8-2.5c0.5-0.8,1.3-1.4,2.4-1.9c-0.5-0.6-0.9-1.1-1.1-1.7c-0.2-0.5-0.4-1-0.4-1.5
			c0-0.9,0.3-1.6,1-2.3c0.7-0.6,1.7-0.9,3-0.9c1.2,0,2.1,0.3,2.8,1s1,1.4,1,2.4c0,0.6-0.2,1.1-0.5,1.7c-0.4,0.5-1,1.1-2,1.8l2,2.7
			c0.2-0.4,0.4-1,0.6-1.7l2.5,0.6c-0.3,0.9-0.4,1.6-0.6,1.9c-0.2,0.4-0.4,0.8-0.6,1c0.3,0.3,0.7,0.6,1.2,1
			C172.8,121.9,173.1,122.2,173.3,122.3z M164.9,117.4c-0.6,0.3-1.1,0.7-1.4,1.2s-0.5,0.9-0.5,1.4c0,0.6,0.2,1.1,0.6,1.5
			s0.9,0.6,1.6,0.6c0.4,0,0.8-0.1,1.2-0.3c0.4-0.2,0.8-0.5,1.3-0.9L164.9,117.4z M166,114.4l0.8-0.6c0.5-0.4,0.8-0.9,0.8-1.3
			s-0.1-0.6-0.4-0.9c-0.3-0.3-0.6-0.4-1.1-0.4c-0.4,0-0.8,0.1-1,0.3c-0.3,0.2-0.4,0.5-0.4,0.8s0.2,0.8,0.6,1.2L166,114.4z"/>
		<path d="M189.7,118.7l2.8,0.9c-0.4,1.6-1.1,2.7-2.1,3.5s-2.3,1.1-3.8,1.1c-1.9,0-3.4-0.6-4.6-2c-1.2-1.3-1.8-3.1-1.8-5.4
			c0-2.4,0.6-4.3,1.8-5.6c1.2-1.3,2.8-2,4.8-2c1.7,0,3.1,0.5,4.2,1.6c0.6,0.6,1.1,1.5,1.5,2.7l-2.8,0.7c-0.2-0.8-0.5-1.3-1.1-1.8
			c-0.5-0.4-1.2-0.6-1.9-0.6c-1.1,0-1.9,0.4-2.6,1.2c-0.7,0.8-1,2-1,3.8s0.3,3.2,1,3.9c0.6,0.8,1.5,1.2,2.5,1.2c0.8,0,1.4-0.3,2-0.8
			C189,120.5,189.4,119.8,189.7,118.7z"/>
		<path d="M200.3,124v-14.5h2.8V124H200.3z"/>
		<path d="M223.3,124h-3.1l-1.2-3.3h-5.6l-1.2,3.3h-3l5.5-14.5h3L223.3,124z M218.1,118.3l-1.9-5.4l-1.9,5.4H218.1z"/>
	</g>
</g>
</svg>
