<svg width="326" height="49" viewBox="0 0 326 49" fill="none" xmlns="http://www.w3.org/2000/svg">
<rect x="26" width="30" height="30" rx="3" fill="#E67A2A"/>
<rect x="286" width="30" height="30" rx="3" fill="#C4C4C4"/>
<path opacity="0.4" d="M304.513 12.8525C304.513 13.4408 304.341 13.9316 303.999 14.3252C303.656 14.7145 303.173 14.9769 302.551 15.1123V15.1631C303.296 15.2562 303.855 15.4889 304.227 15.8613C304.599 16.2295 304.786 16.7204 304.786 17.334C304.786 18.2269 304.47 18.9167 303.84 19.4033C303.209 19.8857 302.312 20.127 301.148 20.127C300.12 20.127 299.253 19.9598 298.546 19.6255V18.2988C298.939 18.4935 299.356 18.6437 299.796 18.7495C300.236 18.8553 300.66 18.9082 301.066 18.9082C301.785 18.9082 302.323 18.7749 302.678 18.5083C303.034 18.2417 303.211 17.8291 303.211 17.2705C303.211 16.7754 303.015 16.4115 302.621 16.1787C302.228 15.946 301.61 15.8296 300.768 15.8296H299.961V14.6172H300.78C302.261 14.6172 303.002 14.1051 303.002 13.0811C303.002 12.6833 302.873 12.3765 302.615 12.1606C302.357 11.9448 301.976 11.8369 301.472 11.8369C301.121 11.8369 300.782 11.8877 300.457 11.9893C300.131 12.0866 299.746 12.2791 299.301 12.5669L298.571 11.5259C299.422 10.8996 300.41 10.5864 301.536 10.5864C302.471 10.5864 303.201 10.7874 303.726 11.1895C304.25 11.5915 304.513 12.1458 304.513 12.8525Z" fill="#5D1D3F"/>
<rect x="156" width="30" height="30" rx="3" fill="#E67A2A"/>
<line x1="186" y1="14.5" x2="286" y2="14.5" stroke="#C4C4C4"/>
<line x1="56" y1="14.5" x2="156" y2="14.5" stroke="#E67A2A"/>
<path d="M6.67969 42.3623C6.67969 43.5407 6.35905 44.4424 5.71777 45.0674C5.07975 45.6891 4.16016 46 2.95898 46H0.981445V38.8613H3.16895C4.27897 38.8613 5.1416 39.1689 5.75684 39.7842C6.37207 40.3994 6.67969 41.2588 6.67969 42.3623ZM5.80078 42.3916C5.80078 41.4606 5.56641 40.7591 5.09766 40.2871C4.63216 39.8151 3.9388 39.5791 3.01758 39.5791H1.81152V45.2822H2.82227C3.81185 45.2822 4.55566 45.0397 5.05371 44.5547C5.55176 44.0664 5.80078 43.3454 5.80078 42.3916ZM12.7637 46L11.875 43.7295H9.01367L8.13477 46H7.29492L10.1172 38.832H10.8154L13.623 46H12.7637ZM11.6162 42.9824L10.7861 40.7705C10.6787 40.4906 10.568 40.1471 10.4541 39.7402C10.3825 40.0527 10.2799 40.3962 10.1465 40.7705L9.30664 42.9824H11.6162ZM20.3027 42.3623C20.3027 43.5407 19.9821 44.4424 19.3408 45.0674C18.7028 45.6891 17.7832 46 16.582 46H14.6045V38.8613H16.792C17.902 38.8613 18.7646 39.1689 19.3799 39.7842C19.9951 40.3994 20.3027 41.2588 20.3027 42.3623ZM19.4238 42.3916C19.4238 41.4606 19.1895 40.7591 18.7207 40.2871C18.2552 39.8151 17.5618 39.5791 16.6406 39.5791H15.4346V45.2822H16.4453C17.4349 45.2822 18.1787 45.0397 18.6768 44.5547C19.1748 44.0664 19.4238 43.3454 19.4238 42.3916ZM28.0957 42.4209C28.0957 43.5635 27.806 44.4619 27.2266 45.1162C26.6504 45.7705 25.848 46.0977 24.8193 46.0977C23.7679 46.0977 22.9557 45.777 22.3828 45.1357C21.8132 44.4912 21.5283 43.583 21.5283 42.4111C21.5283 41.249 21.8148 40.349 22.3877 39.7109C22.9606 39.0697 23.7744 38.749 24.8291 38.749C25.8545 38.749 26.6553 39.0745 27.2314 39.7256C27.8076 40.3766 28.0957 41.2751 28.0957 42.4209ZM22.4072 42.4209C22.4072 43.3877 22.6123 44.1217 23.0225 44.623C23.4359 45.1211 24.0348 45.3701 24.8193 45.3701C25.6104 45.3701 26.2077 45.1211 26.6113 44.623C27.015 44.125 27.2168 43.391 27.2168 42.4209C27.2168 41.4606 27.015 40.7331 26.6113 40.2383C26.2109 39.7402 25.6169 39.4912 24.8291 39.4912C24.0381 39.4912 23.4359 39.7419 23.0225 40.2432C22.6123 40.7412 22.4072 41.4671 22.4072 42.4209ZM33.7207 44.1006C33.7207 44.7288 33.4928 45.2188 33.0371 45.5703C32.5814 45.9219 31.9629 46.0977 31.1816 46.0977C30.3353 46.0977 29.6842 45.9886 29.2285 45.7705V44.9697C29.5215 45.0934 29.8405 45.1911 30.1855 45.2627C30.5306 45.3343 30.8724 45.3701 31.2109 45.3701C31.7643 45.3701 32.181 45.266 32.4609 45.0576C32.7409 44.846 32.8809 44.5531 32.8809 44.1787C32.8809 43.9313 32.8304 43.7295 32.7295 43.5732C32.6318 43.4137 32.4658 43.2673 32.2314 43.1338C32.0003 43.0003 31.6471 42.849 31.1719 42.6797C30.5078 42.4421 30.0326 42.1605 29.7461 41.835C29.4629 41.5094 29.3213 41.0846 29.3213 40.5605C29.3213 40.0104 29.528 39.5726 29.9414 39.2471C30.3548 38.9215 30.9017 38.7588 31.582 38.7588C32.2917 38.7588 32.9443 38.889 33.54 39.1494L33.2812 39.8721C32.6921 39.6247 32.1191 39.501 31.5625 39.501C31.123 39.501 30.7796 39.5954 30.5322 39.7842C30.2848 39.973 30.1611 40.235 30.1611 40.5703C30.1611 40.8177 30.2067 41.0212 30.2979 41.1807C30.389 41.3369 30.542 41.4818 30.7568 41.6152C30.9749 41.7454 31.307 41.8903 31.7529 42.0498C32.5016 42.3167 33.016 42.6032 33.2959 42.9092C33.5791 43.2152 33.7207 43.6123 33.7207 44.1006ZM42.3047 40.9414C42.3047 41.6641 42.0573 42.2207 41.5625 42.6113C41.071 42.9987 40.3662 43.1924 39.4482 43.1924H38.6084V46H37.7783V38.8613H39.6289C41.4128 38.8613 42.3047 39.5547 42.3047 40.9414ZM38.6084 42.4795H39.3555C40.0911 42.4795 40.6234 42.3607 40.9521 42.123C41.2809 41.8854 41.4453 41.5046 41.4453 40.9805C41.4453 40.5085 41.2907 40.1569 40.9814 39.9258C40.6722 39.6947 40.1904 39.5791 39.5361 39.5791H38.6084V42.4795ZM47.7832 46H43.8037V38.8613H47.7832V39.5986H44.6338V41.8984H47.5928V42.6309H44.6338V45.2578H47.7832V46ZM53.3984 44.1006C53.3984 44.7288 53.1706 45.2188 52.7148 45.5703C52.2591 45.9219 51.6406 46.0977 50.8594 46.0977C50.013 46.0977 49.362 45.9886 48.9062 45.7705V44.9697C49.1992 45.0934 49.5182 45.1911 49.8633 45.2627C50.2083 45.3343 50.5501 45.3701 50.8887 45.3701C51.4421 45.3701 51.8587 45.266 52.1387 45.0576C52.4186 44.846 52.5586 44.5531 52.5586 44.1787C52.5586 43.9313 52.5081 43.7295 52.4072 43.5732C52.3096 43.4137 52.1436 43.2673 51.9092 43.1338C51.6781 43.0003 51.3249 42.849 50.8496 42.6797C50.1855 42.4421 49.7103 42.1605 49.4238 41.835C49.1406 41.5094 48.999 41.0846 48.999 40.5605C48.999 40.0104 49.2057 39.5726 49.6191 39.2471C50.0326 38.9215 50.5794 38.7588 51.2598 38.7588C51.9694 38.7588 52.6221 38.889 53.2178 39.1494L52.959 39.8721C52.3698 39.6247 51.7969 39.501 51.2402 39.501C50.8008 39.501 50.4574 39.5954 50.21 39.7842C49.9626 39.973 49.8389 40.235 49.8389 40.5703C49.8389 40.8177 49.8844 41.0212 49.9756 41.1807C50.0667 41.3369 50.2197 41.4818 50.4346 41.6152C50.6527 41.7454 50.9847 41.8903 51.4307 42.0498C52.1794 42.3167 52.6937 42.6032 52.9736 42.9092C53.2568 43.2152 53.3984 43.6123 53.3984 44.1006ZM58.8867 44.1006C58.8867 44.7288 58.6589 45.2188 58.2031 45.5703C57.7474 45.9219 57.1289 46.0977 56.3477 46.0977C55.5013 46.0977 54.8503 45.9886 54.3945 45.7705V44.9697C54.6875 45.0934 55.0065 45.1911 55.3516 45.2627C55.6966 45.3343 56.0384 45.3701 56.377 45.3701C56.9303 45.3701 57.347 45.266 57.627 45.0576C57.9069 44.846 58.0469 44.5531 58.0469 44.1787C58.0469 43.9313 57.9964 43.7295 57.8955 43.5732C57.7979 43.4137 57.6318 43.2673 57.3975 43.1338C57.1663 43.0003 56.8132 42.849 56.3379 42.6797C55.6738 42.4421 55.1986 42.1605 54.9121 41.835C54.6289 41.5094 54.4873 41.0846 54.4873 40.5605C54.4873 40.0104 54.694 39.5726 55.1074 39.2471C55.5208 38.9215 56.0677 38.7588 56.748 38.7588C57.4577 38.7588 58.1104 38.889 58.7061 39.1494L58.4473 39.8721C57.8581 39.6247 57.2852 39.501 56.7285 39.501C56.2891 39.501 55.9456 39.5954 55.6982 39.7842C55.4508 39.973 55.3271 40.235 55.3271 40.5703C55.3271 40.8177 55.3727 41.0212 55.4639 41.1807C55.555 41.3369 55.708 41.4818 55.9229 41.6152C56.141 41.7454 56.473 41.8903 56.9189 42.0498C57.6676 42.3167 58.182 42.6032 58.4619 42.9092C58.7451 43.2152 58.8867 43.6123 58.8867 44.1006ZM66.543 42.4209C66.543 43.5635 66.2533 44.4619 65.6738 45.1162C65.0977 45.7705 64.2952 46.0977 63.2666 46.0977C62.2152 46.0977 61.403 45.777 60.8301 45.1357C60.2604 44.4912 59.9756 43.583 59.9756 42.4111C59.9756 41.249 60.262 40.349 60.835 39.7109C61.4079 39.0697 62.2217 38.749 63.2764 38.749C64.3018 38.749 65.1025 39.0745 65.6787 39.7256C66.2549 40.3766 66.543 41.2751 66.543 42.4209ZM60.8545 42.4209C60.8545 43.3877 61.0596 44.1217 61.4697 44.623C61.8831 45.1211 62.4821 45.3701 63.2666 45.3701C64.0576 45.3701 64.6549 45.1211 65.0586 44.623C65.4622 44.125 65.6641 43.391 65.6641 42.4209C65.6641 41.4606 65.4622 40.7331 65.0586 40.2383C64.6582 39.7402 64.0641 39.4912 63.2764 39.4912C62.4854 39.4912 61.8831 39.7419 61.4697 40.2432C61.0596 40.7412 60.8545 41.4671 60.8545 42.4209ZM72.627 46L71.7383 43.7295H68.877L67.998 46H67.1582L69.9805 38.832H70.6787L73.4863 46H72.627ZM71.4795 42.9824L70.6494 40.7705C70.542 40.4906 70.4313 40.1471 70.3174 39.7402C70.2458 40.0527 70.1432 40.3962 70.0098 40.7705L69.1699 42.9824H71.4795ZM74.4678 46V38.8613H75.2979V46H74.4678ZM81.2891 44.1006C81.2891 44.7288 81.0612 45.2188 80.6055 45.5703C80.1497 45.9219 79.5312 46.0977 78.75 46.0977C77.9036 46.0977 77.2526 45.9886 76.7969 45.7705V44.9697C77.0898 45.0934 77.4089 45.1911 77.7539 45.2627C78.099 45.3343 78.4408 45.3701 78.7793 45.3701C79.3327 45.3701 79.7493 45.266 80.0293 45.0576C80.3092 44.846 80.4492 44.5531 80.4492 44.1787C80.4492 43.9313 80.3988 43.7295 80.2979 43.5732C80.2002 43.4137 80.0342 43.2673 79.7998 43.1338C79.5687 43.0003 79.2155 42.849 78.7402 42.6797C78.0762 42.4421 77.6009 42.1605 77.3145 41.835C77.0312 41.5094 76.8896 41.0846 76.8896 40.5605C76.8896 40.0104 77.0964 39.5726 77.5098 39.2471C77.9232 38.9215 78.4701 38.7588 79.1504 38.7588C79.86 38.7588 80.5127 38.889 81.1084 39.1494L80.8496 39.8721C80.2604 39.6247 79.6875 39.501 79.1309 39.501C78.6914 39.501 78.348 39.5954 78.1006 39.7842C77.8532 39.973 77.7295 40.235 77.7295 40.5703C77.7295 40.8177 77.7751 41.0212 77.8662 41.1807C77.9574 41.3369 78.1104 41.4818 78.3252 41.6152C78.5433 41.7454 78.8753 41.8903 79.3213 42.0498C80.07 42.3167 80.5843 42.6032 80.8643 42.9092C81.1475 43.2152 81.2891 43.6123 81.2891 44.1006Z" fill="#5D1D3F"/>
<path d="M137.68 42.3623C137.68 43.5407 137.359 44.4424 136.718 45.0674C136.08 45.6891 135.16 46 133.959 46H131.981V38.8613H134.169C135.279 38.8613 136.142 39.1689 136.757 39.7842C137.372 40.3994 137.68 41.2588 137.68 42.3623ZM136.801 42.3916C136.801 41.4606 136.566 40.7591 136.098 40.2871C135.632 39.8151 134.939 39.5791 134.018 39.5791H132.812V45.2822H133.822C134.812 45.2822 135.556 45.0397 136.054 44.5547C136.552 44.0664 136.801 43.3454 136.801 42.3916ZM143.764 46L142.875 43.7295H140.014L139.135 46H138.295L141.117 38.832H141.815L144.623 46H143.764ZM142.616 42.9824L141.786 40.7705C141.679 40.4906 141.568 40.1471 141.454 39.7402C141.382 40.0527 141.28 40.3962 141.146 40.7705L140.307 42.9824H142.616ZM151.303 42.3623C151.303 43.5407 150.982 44.4424 150.341 45.0674C149.703 45.6891 148.783 46 147.582 46H145.604V38.8613H147.792C148.902 38.8613 149.765 39.1689 150.38 39.7842C150.995 40.3994 151.303 41.2588 151.303 42.3623ZM150.424 42.3916C150.424 41.4606 150.189 40.7591 149.721 40.2871C149.255 39.8151 148.562 39.5791 147.641 39.5791H146.435V45.2822H147.445C148.435 45.2822 149.179 45.0397 149.677 44.5547C150.175 44.0664 150.424 43.3454 150.424 42.3916ZM159.096 42.4209C159.096 43.5635 158.806 44.4619 158.227 45.1162C157.65 45.7705 156.848 46.0977 155.819 46.0977C154.768 46.0977 153.956 45.777 153.383 45.1357C152.813 44.4912 152.528 43.583 152.528 42.4111C152.528 41.249 152.815 40.349 153.388 39.7109C153.961 39.0697 154.774 38.749 155.829 38.749C156.854 38.749 157.655 39.0745 158.231 39.7256C158.808 40.3766 159.096 41.2751 159.096 42.4209ZM153.407 42.4209C153.407 43.3877 153.612 44.1217 154.022 44.623C154.436 45.1211 155.035 45.3701 155.819 45.3701C156.61 45.3701 157.208 45.1211 157.611 44.623C158.015 44.125 158.217 43.391 158.217 42.4209C158.217 41.4606 158.015 40.7331 157.611 40.2383C157.211 39.7402 156.617 39.4912 155.829 39.4912C155.038 39.4912 154.436 39.7419 154.022 40.2432C153.612 40.7412 153.407 41.4671 153.407 42.4209ZM164.721 44.1006C164.721 44.7288 164.493 45.2188 164.037 45.5703C163.581 45.9219 162.963 46.0977 162.182 46.0977C161.335 46.0977 160.684 45.9886 160.229 45.7705V44.9697C160.521 45.0934 160.84 45.1911 161.186 45.2627C161.531 45.3343 161.872 45.3701 162.211 45.3701C162.764 45.3701 163.181 45.266 163.461 45.0576C163.741 44.846 163.881 44.5531 163.881 44.1787C163.881 43.9313 163.83 43.7295 163.729 43.5732C163.632 43.4137 163.466 43.2673 163.231 43.1338C163 43.0003 162.647 42.849 162.172 42.6797C161.508 42.4421 161.033 42.1605 160.746 41.835C160.463 41.5094 160.321 41.0846 160.321 40.5605C160.321 40.0104 160.528 39.5726 160.941 39.2471C161.355 38.9215 161.902 38.7588 162.582 38.7588C163.292 38.7588 163.944 38.889 164.54 39.1494L164.281 39.8721C163.692 39.6247 163.119 39.501 162.562 39.501C162.123 39.501 161.78 39.5954 161.532 39.7842C161.285 39.973 161.161 40.235 161.161 40.5703C161.161 40.8177 161.207 41.0212 161.298 41.1807C161.389 41.3369 161.542 41.4818 161.757 41.6152C161.975 41.7454 162.307 41.8903 162.753 42.0498C163.502 42.3167 164.016 42.6032 164.296 42.9092C164.579 43.2152 164.721 43.6123 164.721 44.1006ZM172.758 46H168.778V38.8613H172.758V39.5986H169.608V41.8984H172.567V42.6309H169.608V45.2578H172.758V46ZM179.921 46H178.974L175.072 40.0088H175.033C175.085 40.7119 175.111 41.3564 175.111 41.9424V46H174.345V38.8613H175.282L179.174 44.8281H179.213C179.206 44.7402 179.192 44.4587 179.169 43.9834C179.146 43.5049 179.138 43.1631 179.145 42.958V38.8613H179.921V46ZM187.582 42.3623C187.582 43.5407 187.261 44.4424 186.62 45.0674C185.982 45.6891 185.062 46 183.861 46H181.884V38.8613H184.071C185.181 38.8613 186.044 39.1689 186.659 39.7842C187.274 40.3994 187.582 41.2588 187.582 42.3623ZM186.703 42.3916C186.703 41.4606 186.469 40.7591 186 40.2871C185.535 39.8151 184.841 39.5791 183.92 39.5791H182.714V45.2822H183.725C184.714 45.2822 185.458 45.0397 185.956 44.5547C186.454 44.0664 186.703 43.3454 186.703 42.3916ZM193.158 46H189.179V38.8613H193.158V39.5986H190.009V41.8984H192.968V42.6309H190.009V45.2578H193.158V46ZM195.575 43.0312V46H194.745V38.8613H196.703C197.579 38.8613 198.225 39.029 198.642 39.3643C199.062 39.6995 199.271 40.2041 199.271 40.8779C199.271 41.8219 198.793 42.46 197.836 42.792L199.774 46H198.793L197.064 43.0312H195.575ZM195.575 42.3184H196.713C197.299 42.3184 197.729 42.2028 198.002 41.9717C198.275 41.7373 198.412 41.3874 198.412 40.9219C198.412 40.4499 198.272 40.1097 197.992 39.9014C197.715 39.693 197.27 39.5889 196.654 39.5889H195.575V42.3184ZM204.906 46H200.927V38.8613H204.906V39.5986H201.757V41.8984H204.716V42.6309H201.757V45.2578H204.906V46ZM209.55 39.501C208.765 39.501 208.145 39.763 207.689 40.2871C207.237 40.8079 207.011 41.5225 207.011 42.4307C207.011 43.3649 207.229 44.0876 207.665 44.5986C208.104 45.1064 208.729 45.3604 209.54 45.3604C210.038 45.3604 210.606 45.2708 211.244 45.0918V45.8193C210.749 46.0049 210.139 46.0977 209.413 46.0977C208.362 46.0977 207.549 45.7786 206.977 45.1406C206.407 44.5026 206.122 43.596 206.122 42.4209C206.122 41.6852 206.259 41.0407 206.532 40.4873C206.809 39.9339 207.206 39.5075 207.724 39.208C208.244 38.9085 208.856 38.7588 209.56 38.7588C210.308 38.7588 210.963 38.8955 211.522 39.1689L211.171 39.8818C210.631 39.6279 210.09 39.501 209.55 39.501ZM210.15 47.4111C210.15 47.7269 210.025 47.971 209.774 48.1436C209.527 48.3161 209.159 48.4023 208.671 48.4023C208.505 48.4023 208.349 48.3877 208.202 48.3584V47.8408C208.349 47.8669 208.518 47.8799 208.71 47.8799C208.967 47.8799 209.161 47.8473 209.291 47.7822C209.424 47.7171 209.491 47.5967 209.491 47.4209C209.491 47.2809 209.426 47.167 209.296 47.0791C209.169 46.9945 208.928 46.9245 208.573 46.8691L209.003 46H209.54L209.271 46.5615C209.857 46.6885 210.15 46.9717 210.15 47.4111ZM218.998 42.4209C218.998 43.5635 218.708 44.4619 218.129 45.1162C217.553 45.7705 216.75 46.0977 215.722 46.0977C214.67 46.0977 213.858 45.777 213.285 45.1357C212.715 44.4912 212.431 43.583 212.431 42.4111C212.431 41.249 212.717 40.349 213.29 39.7109C213.863 39.0697 214.677 38.749 215.731 38.749C216.757 38.749 217.558 39.0745 218.134 39.7256C218.71 40.3766 218.998 41.2751 218.998 42.4209ZM213.31 42.4209C213.31 43.3877 213.515 44.1217 213.925 44.623C214.338 45.1211 214.937 45.3701 215.722 45.3701C216.513 45.3701 217.11 45.1211 217.514 44.623C217.917 44.125 218.119 43.391 218.119 42.4209C218.119 41.4606 217.917 40.7331 217.514 40.2383C217.113 39.7402 216.519 39.4912 215.731 39.4912C214.94 39.4912 214.338 39.7419 213.925 40.2432C213.515 40.7412 213.31 41.4671 213.31 42.4209Z" fill="#5D1D3F"/>
<path d="M278.812 46H277.981V38.8613H281.961V39.5986H278.812V42.2109H281.771V42.9482H278.812V46ZM283.147 46V38.8613H283.978V46H283.147ZM291.517 46H290.569L286.668 40.0088H286.629C286.681 40.7119 286.707 41.3564 286.707 41.9424V46H285.94V38.8613H286.878L290.77 44.8281H290.809C290.802 44.7402 290.787 44.4587 290.765 43.9834C290.742 43.5049 290.734 43.1631 290.74 42.958V38.8613H291.517V46ZM297.967 46L297.078 43.7295H294.217L293.338 46H292.498L295.32 38.832H296.019L298.826 46H297.967ZM296.819 42.9824L295.989 40.7705C295.882 40.4906 295.771 40.1471 295.657 39.7402C295.586 40.0527 295.483 40.3962 295.35 40.7705L294.51 42.9824H296.819ZM299.808 46V38.8613H300.638V45.248H303.787V46H299.808ZM305.003 46V38.8613H305.833V46H305.003ZM312.122 46H307.215V45.3506L311.004 39.6084H307.332V38.8613H312.015V39.5107L308.226 45.248H312.122V46ZM317.996 46L317.107 43.7295H314.246L313.367 46H312.527L315.35 38.832H316.048L318.855 46H317.996ZM316.849 42.9824L316.019 40.7705C315.911 40.4906 315.8 40.1471 315.687 39.7402C315.615 40.0527 315.512 40.3962 315.379 40.7705L314.539 42.9824H316.849ZM320.667 43.0312V46H319.837V38.8613H321.795C322.671 38.8613 323.317 39.029 323.733 39.3643C324.153 39.6995 324.363 40.2041 324.363 40.8779C324.363 41.8219 323.885 42.46 322.928 42.792L324.866 46H323.885L322.156 43.0312H320.667ZM320.667 42.3184H321.805C322.391 42.3184 322.82 42.2028 323.094 41.9717C323.367 41.7373 323.504 41.3874 323.504 40.9219C323.504 40.4499 323.364 40.1097 323.084 39.9014C322.807 39.693 322.361 39.5889 321.746 39.5889H320.667V42.3184Z" fill="#5D1D3F"/>
<path d="M41.9512 20H40.4595V14.0078C40.4595 13.2926 40.4764 12.7256 40.5103 12.3066C40.4129 12.4082 40.2923 12.5203 40.1484 12.6431C40.0088 12.7658 39.5348 13.1551 38.7266 13.811L37.9775 12.8652L40.707 10.7197H41.9512V20Z" fill="#5D1D3F"/>
<path d="M174.862 20H168.571V18.8701L170.964 16.4644C171.671 15.7407 172.139 15.2287 172.367 14.9282C172.6 14.6235 172.769 14.3379 172.875 14.0713C172.981 13.8047 173.034 13.519 173.034 13.2144C173.034 12.7954 172.907 12.4653 172.653 12.2241C172.403 11.9829 172.056 11.8623 171.612 11.8623C171.256 11.8623 170.911 11.9279 170.577 12.0591C170.247 12.1903 169.864 12.4272 169.428 12.77L168.622 11.7861C169.138 11.3503 169.64 11.0413 170.126 10.8594C170.613 10.6774 171.132 10.5864 171.682 10.5864C172.545 10.5864 173.237 10.8128 173.757 11.2656C174.278 11.7142 174.538 12.3193 174.538 13.0811C174.538 13.5 174.462 13.8978 174.31 14.2744C174.161 14.651 173.931 15.0404 173.618 15.4424C173.309 15.8402 172.792 16.3797 172.069 17.061L170.457 18.6226V18.686H174.862V20Z" fill="#5D1D3F"/>
</svg>
